<?xml version="1.0" encoding="UTF-8"?>
<svg xmlns="http://www.w3.org/2000/svg" xmlns:xlink="http://www.w3.org/1999/xlink" width="40px"
	height="40px" viewBox="0 0 50 50" version="1.1">
	<g id="surface1">
		<path style=" stroke:none;fill-rule:nonzero;fill:rgb(100%,100%,100%);fill-opacity:1;"
			d="M 48.4375 25 C 48.4375 37.945312 37.945312 48.4375 25 48.4375 C 12.054688 48.4375 1.5625 37.945312 1.5625 25 C 1.5625 12.054688 12.054688 1.5625 25 1.5625 C 37.945312 1.5625 48.4375 12.054688 48.4375 25 Z M 48.4375 25 " />
		<path
			style=" stroke:none;fill-rule:nonzero;fill:rgb(36.862745%,20.784314%,69.411765%);fill-opacity:1;"
			d="M 25 1.5625 C 12.054688 1.5625 1.5625 12.054688 1.5625 25 C 1.5625 37.945312 12.054688 48.4375 25 48.4375 C 37.945312 48.4375 48.4375 37.945312 48.4375 25 C 48.4375 12.054688 37.945312 1.5625 25 1.5625 M 29.308594 36.335938 L 25 28.605469 L 20.449219 36.335938 L 14.941406 36.335938 L 22.230469 24.785156 L 15.296875 13.667969 L 20.957031 13.667969 L 25 21.046875 L 29.152344 13.667969 L 34.628906 13.667969 L 27.691406 24.601562 L 35.058594 36.335938 Z M 29.308594 36.335938 " />
	</g>
</svg>